PathFileType	4	(X/Y/Z)	C:/Users/opensim2020/Desktop/walking_exp_matlab/subject06_walking14_straight_02.trc																																																																																																																																					
DataRate	CameraRate	NumFrames	NumMarkers	Units	OrigDataRate	OrigDataStartFrame	OrigNumFrames																																																																																																																																	
100	100	4	45	mm	100	1700	192																																																																																																																																	
Frame#	Time	LFHD			RFHD			LBHD			RBHD			C7			T10			CLAV			STRN			RBAK			LSHO			LUPA			LELB			LFRM			LWRA			LWRB			LFIN			RSHO			RUPA			RELB			RFRM			RWRA			RWRB			RFIN			LASI			RASI			LPSI			RPSI			LTHI			LKNE			LTIB			LANK			LHEE			LTOE			RTHI			RKNE			RTIB			RANK			RHEE			RTOE			*39			*40			*41			*42			*43			*44		
		X1	Y1	Z1	X2	Y2	Z2	X3	Y3	Z3	X4	Y4	Z4	X5	Y5	Z5	X6	Y6	Z6	X7	Y7	Z7	X8	Y8	Z8	X9	Y9	Z9	X10	Y10	Z10	X11	Y11	Z11	X12	Y12	Z12	X13	Y13	Z13	X14	Y14	Z14	X15	Y15	Z15	X16	Y16	Z16	X17	Y17	Z17	X18	Y18	Z18	X19	Y19	Z19	X20	Y20	Z20	X21	Y21	Z21	X22	Y22	Z22	X23	Y23	Z23	X24	Y24	Z24	X25	Y25	Z25	X26	Y26	Z26	X27	Y27	Z27	X28	Y28	Z28	X29	Y29	Z29	X30	Y30	Z30	X31	Y31	Z31	X32	Y32	Z32	X33	Y33	Z33	X34	Y34	Z34	X35	Y35	Z35	X36	Y36	Z36	X37	Y37	Z37	X38	Y38	Z38	X39	Y39	Z39	X40	Y40	Z40	X41	Y41	Z41	X42	Y42	Z42	X43	Y43	Z43	X44	Y44	Z44	X45	Y45	Z45
																																																																																																																																								
121	1.2	263.79114	1671.03271	952.22351	273.68341	1663.20142	1083.64429	133.31293	1610.64319	962.61926	144.74327	1608.46704	1092.06323	144.34991	1454.76208	1019.61987	114.47279	1127.09619	1033.64221	256.80664	1380.54041	1017.4389	297.20724	1204.65393	1012.85614	77.31542	1286.29114	1104.16089	194.85446	1407.80603	856.70355	190.37781	1201.46484	793.90942	186.99907	1088.1969	788.60675	219.59138	941.75726	763.68463	302.86191	837.84003	790.66974	236.60129	823.42542	769.76837	288.24802	750.69336	756.55811	217.14238	1414.11084	1180.14233	181.37149	1218.79797	1274.65784	194.37183	1098.25012	1291.59338	234.50946	986.05109	1308.42725	325.81604	867.08539	1272.38037	275.1586	855.16412	1314.99182	329.57858	790.51068	1314.23364	289.30289	965.74353	921.46198	296.29703	975.34882	1141.43164	131.18416	990.50812	952.41986	143.23392	1000.4035	1120.50745	275.8591	651.84845	866.75562	316.75085	494.1806	885.91418	161.76752	301.73874	888.97986	59.10695	162.72925	922.92572	18.92155	169.63461	970.59155	156.7937	58.1614	917.10571	244.78285	638.44122	1192.37427	250.50629	512.99866	1165.2323	189.59872	250.77115	1156.05334	166.37593	67.24216	1101.84973	125.57163	44.06272	1057.97107	320.73859	30.9756	1098.09045	166.4978	1706.61182	1017.90466	NaN	NaN	NaN	NaN	NaN	NaN	NaN	NaN	NaN	NaN	NaN	NaN	NaN	NaN	NaN
122	1.21	273.44351	1670.85022	951.8501	283.65274	1662.97595	1083.28931	142.85228	1610.75024	962.62616	154.54758	1608.61304	1091.97791	153.86732	1454.65601	1019.83014	123.75169	1127.01294	1034.08142	266.27701	1380.42627	1017.31018	306.61856	1204.56567	1013.02374	86.88312	1286.36401	1104.42236	203.84073	1407.73279	856.68585	196.7547	1201.52161	793.89459	191.44446	1088.39563	788.58337	220.02127	941.341	763.42859	300.57156	834.80286	789.39423	233.67924	822.49231	769.05878	282.90421	747.90118	755.88702	226.58417	1414.23962	1180.05713	192.11334	1219.09058	1275.42285	206.38376	1098.92725	1292.86023	249.44502	987.97412	1309.48376	344.03162	871.92853	1272.79651	293.90359	858.54413	1315.72253	350.25174	795.52832	1314.83813	298.92905	965.9953	922.11353	305.29248	974.95587	1141.90369	140.76465	990.54266	952.67468	153.11012	999.81659	1120.60547	288.64526	653.10907	866.70709	332.23544	496.08746	886.40997	183.54558	297.99405	888.6087	86.18569	154.98595	922.10248	45.41911	159.93184	969.42743	188.89148	55.45433	916.55298	251.36725	637.83826	1192.14722	255.46815	512.22852	1165.44763	191.86391	250.59799	1155.7417	166.34088	67.67908	1102.00122	125.6957	44.55758	1057.7439	320.93304	30.88849	1098.20459	176.45114	1706.63745	1017.68481	NaN	NaN	NaN	NaN	NaN	NaN	NaN	NaN	NaN	NaN	NaN	NaN	NaN	NaN	NaN
123	1.22	283.21426	1670.43701	951.54456	293.61365	1662.72144	1082.90906	152.48273	1610.69104	962.49481	164.45131	1608.51196	1091.87573	163.13728	1454.49072	1020.01227	133.03578	1126.88647	1034.71204	275.64447	1380.18311	1017.22333	315.99615	1204.35706	1013.19446	96.29845	1286.21375	1104.76892	212.67786	1407.41431	856.74286	203.15718	1201.53931	793.73132	195.90648	1088.54126	788.51855	220.91023	940.90839	762.8877	298.46283	832.05939	788.07922	231.09039	821.73639	768.46838	277.52664	745.53528	754.80072	236.10052	1414.28357	1179.93372	202.73538	1219.37573	1276.07214	218.31326	1099.54041	1294.02185	264.23007	989.93201	1310.48364	362.01968	876.86639	1273.12769	312.92108	861.92804	1316.01599	370.94757	800.81006	1315.04236	308.56375	966.20148	922.68091	314.36316	974.50751	1142.26428	150.19711	990.48224	952.97656	162.26811	999.43256	1121.0116	301.43402	654.39368	866.62372	347.25375	497.94714	886.82861	205.63422	294.0976	888.43597	114.00175	146.85471	921.35608	72.61372	149.94557	968.42444	221.6669	52.78261	916.19727	258.0256	637.12408	1191.87512	260.63766	511.39731	1165.44946	194.23457	250.44974	1155.46875	166.63348	67.87679	1101.47388	126.08084	44.61649	1057.34888	321.09531	30.7959	1098.27808	186.33374	1706.56653	1017.54279	NaN	NaN	NaN	NaN	NaN	NaN	NaN	NaN	NaN	NaN	NaN	NaN	NaN	NaN	NaN
124	1.23	292.87888	1670.10242	951.17841	303.26056	1662.35522	1082.41125	162.05872	1610.578	962.26166	174.20883	1608.35657	1091.73596	172.599	1454.23523	1019.93579	142.49594	1126.54919	1035.11536	285.11313	1379.92883	1017.03967	325.39752	1204.08972	1013.29443	105.83375	1285.97583	1105.02441	221.66518	1407.12122	856.61102	209.49004	1201.47681	793.5321	200.43977	1088.66528	788.36469	221.7955	940.59253	762.26239	296.47772	829.56927	786.70306	228.53009	821.25348	767.55219	272.72971	743.36023	754.18365	245.59872	1414.27515	1179.73438	212.86536	1219.55164	1276.38867	230.12935	1100.10864	1295.09265	278.88318	991.91235	1311.34338	379.73199	881.93481	1273.36841	331.16931	865.45392	1316.41882	390.91238	806.12097	1315.46448	318.26083	966.38464	923.2052	322.96051	973.66345	1142.52246	159.71072	990.27063	953.25275	170.81259	999.3244	1121.68811	314.18054	655.63898	866.47205	361.67831	499.58618	887.14374	227.4861	289.91931	887.93176	142.38585	138.56578	920.75433	100.8371	139.56438	967.65771	254.87119	50.23651	915.50983	265.60599	635.85425	1191.50061	266.13382	510.59326	1165.2804	196.9808	250.38264	1155.1427	166.58911	68.29628	1101.45337	126.36752	45.0123	1057.19202	321.32358	30.70584	1098.24463	196.20297	1706.39075	1017.28979	NaN	NaN	NaN	NaN	NaN	NaN	NaN	NaN	NaN	NaN	NaN	NaN	NaN	NaN	NaN
